<svg xmlns="http://www.w3.org/2000/svg" style="display: none;">
  <symbol id="about-logo" viewBox="0 0 64 64">
    <path fill="currentColor" d="M35.001 6.28c.769-.083 1.66.077 2.4.287 1.676.476 3.036 1.494 3.844 2.948.84 1.49 1 3.233.447 4.835-.704 1.975-2.211 2.968-4.094 3.88l.021 5.763c1.346.383 2.656.815 3.878 1.475 2.809 1.517 4.729 4.075 5.534 6.985.852 3.052.368 6.295-1.345 9.016a11.44 11.44 0 0 1-7.077 4.985c-3.92.913-7.243-.076-10.61-1.942a269 269 0 0 0-4.412 4.499c.65 1.426.863 2.923.433 4.44-.421 1.481-1.535 2.752-2.961 3.502-1.598.842-3.417.995-5.168.528-1.738-.463-3.2-1.466-4.049-2.973-.836-1.482-.906-3.22-.364-4.802.616-1.798 1.872-2.906 3.638-3.727 1.901-.693 3.472-.465 5.328.158 1.544-1.515 3-3.106 4.56-4.608-1.715-3.134-2.272-5.804-1.38-9.257-1.942-.845-3.814-1.83-5.757-2.675-1.038 1.007-2.307 1.698-3.798 1.931-1.777.28-3.65-.173-5.112-1.145-1.447-.977-2.4-2.466-2.634-4.117-.24-1.601.212-3.366 1.313-4.63 1.135-1.302 2.896-2.088 4.675-2.262 1.747-.158 3.49.338 4.843 1.38 1.73 1.35 2.23 3.028 2.44 5.03 1.842 1.051 3.951 1.863 5.87 2.802 2.497-2.75 4.322-3.618 7.961-4.663l.003-5.718c-.652-.243-1.302-.539-1.87-.928-1.435-.99-2.378-2.48-2.61-4.13-.216-1.641.282-3.295 1.381-4.593 1.202-1.405 2.808-2.045 4.672-2.275m8.024 28.444c-.37-3.934-4.08-6.85-8.304-6.53-4.261.323-7.426 3.816-7.053 7.784.374 3.97 4.143 6.896 8.4 6.523 4.22-.37 7.327-3.844 6.957-7.777M55.234 25.171c.18-.008.355-.01.535.014.56.075 1.112.328 1.42.786.328.486.373 1.134.417 1.697.222 2.788.057 5.688.057 8.485-.001 2.285.27 5.383-.185 7.583-.143.692-.635 1.023-1.224 1.397-.225.025-.46.054-.686.042a1.9 1.9 0 0 1-1.312-.596c-.324-.356-.315-1.07-.343-1.517-.206-3.207-.032-6.516-.029-9.733.002-1.828-.268-5.326.145-6.958.147-.583.712-.889 1.205-1.2M50.071 29.65c.607.105 1.144.317 1.498.808.545.758.56 8.183.287 9.243-.15.579-.687.861-1.198 1.14-.584-.032-1.351-.08-1.741-.553-.58-.7-.533-8.592-.202-9.581.192-.575.826-.819 1.356-1.057"/>
  </symbol>

  <symbol id="main-f-logo" viewBox="0 0 116 45">
    <path fill="currentColor" d="M21.89 10.638c.421-.048.908.046 1.312.17.916.278 1.66.875 2.102 1.728.459.874.547 1.896.244 2.836-.384 1.159-1.209 1.741-2.238 2.277l.012 3.38c.735.224 1.45.478 2.119.865 1.535.89 2.585 2.39 3.025 4.098a6.98 6.98 0 0 1-.735 5.289c-.86 1.446-2.229 2.515-3.869 2.924-2.141.535-3.958-.044-5.8-1.139q-1.22 1.305-2.41 2.639c.354.837.472 1.715.237 2.604-.23.87-.84 1.615-1.618 2.055-.873.494-1.868.584-2.826.31-.95-.272-1.748-.86-2.212-1.745-.457-.869-.496-1.888-.2-2.816.337-1.055 1.024-1.704 1.989-2.187 1.039-.406 1.898-.272 2.912.093.844-.888 1.639-1.822 2.492-2.703-.937-1.838-1.241-3.405-.754-5.43-1.061-.496-2.085-1.073-3.146-1.569-.568.59-1.262.996-2.077 1.133-.97.163-1.995-.102-2.793-.672a3.56 3.56 0 0 1-1.44-2.416c-.131-.94.116-1.974.718-2.715.62-.764 1.583-1.226 2.555-1.328a3.6 3.6 0 0 1 2.647.81c.946.792 1.22 1.777 1.334 2.95 1.006.618 2.16 1.093 3.208 1.644 1.365-1.613 2.362-2.122 4.351-2.735l.002-3.354a4.6 4.6 0 0 1-1.022-.544 3.6 3.6 0 0 1-1.428-2.423 3.64 3.64 0 0 1 .756-2.695c.657-.824 1.535-1.199 2.554-1.334m4.387 16.687a4.214 4.214 0 1 0-8.395.737 4.214 4.214 0 0 0 8.395-.737M104.917 22.084q1.029 0 2.058.027l-.004 3.626c.528-.41 1.104-.717 1.773-.817a3.4 3.4 0 0 1 2.555.65c.88.665 1.342 1.784 1.475 2.855.17 1.358-.149 2.663-.987 3.746-.556.536-1.223.912-1.992 1.038-1.129.185-2.024-.21-2.904-.866l-.004.792-1.969-.004zm3.526 4.751c-.611.203-1.037.493-1.335 1.082-.331.653-.354 1.461-.095 2.143.197.521.567.973 1.082 1.205.374.169.726.174 1.129.15.638-.241 1.068-.551 1.357-1.19a2.72 2.72 0 0 0 .011-2.145c-.22-.517-.612-.933-1.14-1.138-.33-.127-.661-.144-1.009-.107M45.981 22.063c1.207 3.72 2.752 7.339 3.93 11.07l-2.226.001c-.26-.796-.512-1.697-.91-2.433-.26-.111-.567-.074-.845-.07q-1.61.016-3.22-.011c-.336.822-.607 1.667-.874 2.513l-2.266-.002c1.184-3.713 2.594-7.379 3.871-11.063.845.018 1.695-.002 2.54-.005m-1.268 2.75c-.468 1.332-.905 2.681-1.418 3.996h1.629l1.266-.015c-.178-.5-1.211-3.76-1.477-3.981M92.882 22.087l2.127.013c-.029 2.564-.006 5.132-.007 7.697 0 1.058.107 2.215-.012 3.26l-.116.08H92.88l-.004-4.736c-1.594-.045-3.2-.005-4.795-.003v4.74l-2.14-.004.009-11.044 2.132.005.001 4.516h4.802zM96.29 25.148c.706.02 1.413.013 2.12.017-.01 1.129-.188 4.247.086 5.18.107.368.323.705.67.884.525.27 1.057.114 1.578-.07.23-.257.429-.498.543-.831.373-1.088.174-3.881.168-5.176.673.018 1.347.004 2.02 0-.016.776-.003 1.554-.004 2.33l.01 5.651q-.992.015-1.983-.015l-.061-.071a2 2 0 0 0-.017-.472c-.62.268-1.171.675-1.876.69-.817.016-1.703-.237-2.29-.825-.444-.445-.715-1.043-.855-1.65-.3-1.305-.123-4.197-.11-5.642M67.696 24.926c1.055-.083 2.154-.008 3.007.702.597.498.79 1.095.855 1.838l-1.907-.002c-.11-.204-.22-.44-.391-.6a1.46 1.46 0 0 0-1.045-.365c-.289.016-.657.13-.837.375-.11.149-.17.302-.128.487.217.978 2.703.857 3.494 1.374.504.33.89.922 1.002 1.511a2.22 2.22 0 0 1-.396 1.72c-.607.838-1.543 1.139-2.517 1.288-.902.055-1.948-.188-2.67-.737-.677-.516-.92-1.148-1.013-1.962q.963.002 1.927-.018c.038.121.08.238.14.35.28.516.839.63 1.356.783.343-.078.806-.166 1.048-.442.147-.167.198-.457.136-.67-.237-.816-2.619-.913-3.445-1.421-.489-.302-.849-.74-.979-1.307-.117-.513-.073-1.09.216-1.54.521-.814 1.24-1.148 2.147-1.364M80.525 24.924c.6-.05 1.189-.046 1.774.113.676.182 1.393.56 1.734 1.2.165.306.29.857.18 1.198-.547.118-1.215.038-1.778.032-.082-.278-.153-.493-.378-.685a1.37 1.37 0 0 0-1.03-.313c-.29.03-.662.173-.825.433-.097.155-.136.314-.075.493.35 1.034 2.456.788 3.274 1.256.521.298.957.822 1.105 1.408a2.36 2.36 0 0 1-.31 1.87c-.541.809-1.403 1.113-2.312 1.29-.893.11-1.927-.08-2.673-.595-.766-.528-.996-1.19-1.168-2.056l1.912-.014c.116.292.221.52.469.723.33.27.721.392 1.147.336.33-.044.655-.196.852-.472.13-.181.194-.401.132-.621-.24-.85-2.35-.797-3.187-1.248-.566-.306-1.014-.813-1.193-1.435a1.95 1.95 0 0 1 .19-1.549c.462-.785 1.31-1.168 2.16-1.364M56.995 22.956c.635.021 1.274.008 1.91.01q-.011 1.076.03 2.15l1.883.001-.004 1.642-1.793-.001c0 1.033-.236 3.698.239 4.496.37.291 1.109.182 1.559.177l-.007 1.36c.004.14.004.211-.068.334-.25.12-.508.147-.784.15-.729.006-1.735-.126-2.259-.672-1.052-1.095-.716-4.318-.71-5.847l-1.216.003.004-1.646 1.21.009zM73.366 22.947l1.873.01c-.014.718.016 1.44.03 2.157l1.913-.004-.003 1.65-1.8-.002c.021.984-.22 3.73.226 4.473.478.286 1.078.21 1.616.208-.006.474.003.95.005 1.423l-.023.18c-.185.197-.47.188-.723.194-.77.019-1.833-.103-2.39-.687-1.042-1.09-.718-4.268-.708-5.791H72.1c-.016-.546-.01-1.093-.014-1.64l1.276.007zM32.95 21.72c.099-.005.194-.007.292.008.306.044.608.192.777.46.179.286.203.666.228.996.121 1.636.031 3.337.03 4.978 0 1.34.149 3.158-.1 4.448-.078.406-.347.6-.67.82-.122.014-.25.031-.374.024a1.01 1.01 0 0 1-.718-.35c-.176-.208-.171-.628-.187-.89-.112-1.88-.017-3.822-.016-5.709.001-1.072-.146-3.124.08-4.081.08-.343.389-.522.658-.704M54.674 25.088l.269-.004c.319.357.16 1.487.15 1.955-.674-.007-1.312-.034-1.84.456-.99.92-.657 4.287-.666 5.639-.532-.005-1.566.189-1.972-.149l-.021-.335c.01-2.505-.054-5.007-.038-7.512.643.02 1.289.006 1.932.003l-.023 1.106c.12-.171.238-.355.377-.51.487-.55 1.148-.6 1.832-.65M61.99 25.12l2.02.001.005 8.017-2.044-.003zM30.128 24.347c.332.06.625.185.819.474.298.444.306 4.8.157 5.421-.082.34-.376.506-.655.67-.32-.02-.739-.048-.952-.325-.317-.411-.29-5.04-.11-5.62.105-.338.451-.48.741-.62M62.866 21.818a1.117 1.117 0 1 1 .261 2.22 1.117 1.117 0 0 1-.261-2.22"/>
  </symbol>

  <symbol id="f-mob-logo" viewBox="0 0 84 36">
    <path fill="currentColor" d="M21.89 10.638c.42-.048.907.046 1.312.17.916.278 1.66.875 2.102 1.728.459.874.546 1.896.244 2.836-.384 1.159-1.21 1.741-2.238 2.277l.011 3.38c.736.224 1.452.478 2.12.865 1.534.89 2.585 2.39 3.025 4.098a6.98 6.98 0 0 1-.736 5.289c-.858 1.446-2.228 2.515-3.868 2.924-2.142.535-3.958-.044-5.8-1.139q-1.22 1.305-2.41 2.639c.354.837.472 1.715.237 2.604-.23.87-.84 1.615-1.618 2.055-.874.494-1.869.584-2.826.31-.95-.272-1.748-.86-2.213-1.745-.457-.869-.495-1.888-.199-2.816.337-1.055 1.024-1.704 1.989-2.187 1.038-.406 1.897-.272 2.912.093.844-.888 1.639-1.822 2.492-2.703-.938-1.838-1.242-3.405-.754-5.43-1.061-.496-2.085-1.073-3.147-1.569-.567.59-1.261.996-2.076 1.133-.971.163-1.995-.102-2.794-.672a3.56 3.56 0 0 1-1.44-2.416c-.13-.94.117-1.974.719-2.715.62-.764 1.582-1.226 2.554-1.328a3.6 3.6 0 0 1 2.648.81c.946.792 1.219 1.777 1.334 2.95 1.006.618 2.159 1.093 3.208 1.644 1.364-1.613 2.362-2.122 4.351-2.735l.001-3.354a4.6 4.6 0 0 1-1.021-.544 3.6 3.6 0 0 1-1.428-2.423 3.64 3.64 0 0 1 .756-2.695c.657-.824 1.535-1.199 2.554-1.334m4.386 16.687a4.214 4.214 0 1 0-8.395.737 4.214 4.214 0 0 0 8.395-.737M45.981 22.063c1.207 3.72 2.752 7.339 3.93 11.07l-2.226.001c-.26-.796-.512-1.697-.91-2.433-.26-.111-.567-.074-.845-.07q-1.61.016-3.22-.011c-.336.822-.607 1.667-.874 2.513l-2.266-.002c1.184-3.713 2.594-7.379 3.871-11.063.845.018 1.695-.002 2.54-.005m-1.268 2.75c-.468 1.332-.905 2.681-1.418 3.996h1.629l1.266-.015c-.178-.5-1.211-3.76-1.477-3.981M67.696 24.926c1.055-.083 2.154-.008 3.007.702.597.498.79 1.095.855 1.838l-1.907-.002c-.11-.204-.22-.44-.391-.6a1.46 1.46 0 0 0-1.045-.365c-.289.016-.657.13-.837.375-.11.149-.17.302-.128.487.217.978 2.703.857 3.494 1.374.504.33.89.922 1.002 1.511a2.22 2.22 0 0 1-.396 1.72c-.607.838-1.543 1.139-2.517 1.288-.902.055-1.948-.188-2.67-.737-.677-.516-.92-1.148-1.013-1.962q.963.002 1.927-.018c.038.121.08.238.14.35.28.516.839.63 1.356.783.343-.078.806-.166 1.048-.442.147-.167.198-.457.136-.67-.237-.816-2.619-.913-3.445-1.421-.489-.302-.849-.74-.979-1.307-.117-.513-.073-1.09.216-1.54.521-.814 1.24-1.148 2.147-1.364M80.525 24.924c.6-.05 1.189-.046 1.774.113.676.182 1.393.56 1.734 1.2.165.306.29.857.18 1.198-.547.118-1.215.038-1.778.032-.082-.278-.153-.493-.378-.685a1.37 1.37 0 0 0-1.03-.313c-.29.03-.662.173-.825.433-.097.155-.136.314-.075.493.35 1.034 2.456.788 3.274 1.256.521.298.957.822 1.105 1.408a2.36 2.36 0 0 1-.31 1.87c-.541.809-1.403 1.113-2.312 1.29-.893.11-1.927-.08-2.673-.595-.766-.528-.996-1.19-1.168-2.056l1.912-.014c.116.292.221.52.469.723.33.27.721.392 1.147.336.33-.044.655-.196.852-.472.13-.181.194-.401.132-.621-.24-.85-2.35-.797-3.187-1.248-.566-.306-1.014-.813-1.193-1.435a1.95 1.95 0 0 1 .19-1.549c.462-.785 1.31-1.168 2.16-1.364M56.996 22.956c.634.021 1.273.008 1.908.01q-.01 1.076.031 2.15l1.884.001-.005 1.642-1.793-.001c0 1.033-.236 3.698.239 4.496.37.291 1.11.182 1.559.177l-.007 1.36c.005.14.004.211-.068.334-.25.12-.507.147-.784.15-.729.006-1.735-.126-2.259-.672-1.052-1.095-.715-4.318-.71-5.847l-1.216.003.004-1.646 1.21.009zM73.366 22.947l1.873.01c-.014.718.016 1.44.03 2.157l1.913-.004-.003 1.65-1.8-.002c.021.984-.22 3.73.226 4.473.478.286 1.078.21 1.616.208-.006.474.003.95.005 1.423l-.023.18c-.185.197-.47.188-.723.194-.77.019-1.833-.103-2.39-.687-1.042-1.09-.718-4.268-.708-5.791H72.1c-.016-.546-.01-1.093-.014-1.64l1.276.007zM32.95 21.72c.099-.005.194-.007.292.008.306.044.608.192.777.46.179.286.203.666.228.996.121 1.636.031 3.337.03 4.978 0 1.34.149 3.158-.1 4.448-.078.406-.347.6-.67.82-.122.014-.25.031-.374.024a1.01 1.01 0 0 1-.718-.35c-.176-.208-.171-.628-.187-.89-.112-1.88-.017-3.822-.016-5.709.001-1.072-.146-3.124.08-4.081.08-.343.389-.522.658-.704M54.674 25.088l.269-.004c.319.357.16 1.487.15 1.955-.674-.007-1.312-.034-1.84.456-.99.92-.657 4.287-.666 5.639-.532-.005-1.566.189-1.972-.149l-.021-.335c.01-2.505-.054-5.007-.038-7.512.643.02 1.289.006 1.932.003l-.023 1.106c.12-.171.238-.355.377-.51.487-.55 1.148-.6 1.832-.65M61.99 25.12l2.02.001.005 8.017-2.044-.003zM30.128 24.347c.332.06.625.185.819.474.298.444.306 4.8.157 5.421-.082.34-.376.506-.655.67-.32-.02-.739-.048-.952-.325-.317-.411-.29-5.04-.11-5.62.105-.338.451-.48.741-.62M62.866 21.818a1.117 1.117 0 1 1 .261 2.22 1.117 1.117 0 0 1-.261-2.22"/>
  </symbol>
</svg>