<svg xmlns="http://www.w3.org/2000/svg" width="159" height="68" fill="none" viewBox="0 0 159 68"><path fill="#fff" d="M29.187 14.184c.56-.064 1.21.06 1.75.225 1.22.372 2.212 1.168 2.801 2.306a4.9 4.9 0 0 1 .325 3.78c-.512 1.546-1.61 2.323-2.983 3.037l.015 4.507c.981.299 1.935.637 2.826 1.153 2.046 1.187 3.447 3.188 4.034 5.464a9.3 9.3 0 0 1-.982 7.052c-1.145 1.928-2.97 3.353-5.157 3.898-2.856.714-5.278-.059-7.732-1.518a204 204 0 0 0-3.215 3.518c.473 1.116.629 2.287.315 3.473-.306 1.159-1.118 2.152-2.157 2.74-1.164.658-2.49.777-3.767.412-1.266-.362-2.332-1.146-2.95-2.325-.61-1.16-.661-2.518-.266-3.756.45-1.406 1.365-2.273 2.652-2.916 1.385-.542 2.53-.363 3.882.124 1.126-1.184 2.186-2.43 3.323-3.603-1.25-2.452-1.655-4.54-1.005-7.242-1.415-.66-2.78-1.43-4.195-2.091-.757.787-1.682 1.328-2.769 1.51-1.295.218-2.66-.135-3.725-.895a4.74 4.74 0 0 1-1.92-3.22c-.174-1.253.156-2.633.958-3.621.827-1.02 2.11-1.635 3.406-1.77a4.8 4.8 0 0 1 3.53 1.079c1.261 1.056 1.626 2.37 1.779 3.934 1.342.823 2.879 1.457 4.277 2.192 1.82-2.151 3.15-2.83 5.802-3.647l.002-4.473c-.475-.19-.949-.421-1.363-.725a4.8 4.8 0 0 1-1.903-3.23 4.85 4.85 0 0 1 1.007-3.593c.876-1.1 2.047-1.599 3.405-1.779m5.849 22.248a5.617 5.617 0 1 0-11.19.982 5.617 5.617 0 0 0 11.19-.982M139.888 29.445q1.37.003 2.743.037l-.004 4.834c.704-.547 1.471-.955 2.364-1.089a4.52 4.52 0 0 1 3.406.866c1.174.887 1.789 2.38 1.967 3.807.227 1.811-.197 3.552-1.315 4.996-.741.715-1.632 1.215-2.657 1.383-1.506.248-2.699-.28-3.873-1.156l-.004 1.057-2.626-.005zm4.702 6.335c-.816.271-1.383.658-1.78 1.444-.442.87-.473 1.947-.128 2.855.263.696.756 1.298 1.443 1.608.498.225.969.232 1.505.2.851-.322 1.425-.735 1.81-1.587.403-.89.395-1.964.014-2.86-.293-.689-.815-1.243-1.519-1.516-.44-.17-.882-.193-1.345-.144M61.31 29.418c1.61 4.96 3.668 9.785 5.238 14.758l-2.966.003c-.348-1.062-.683-2.263-1.214-3.245-.347-.148-.757-.098-1.128-.093q-2.145.022-4.292-.015c-.449 1.096-.81 2.223-1.165 3.352l-3.021-.002c1.577-4.952 3.459-9.84 5.162-14.753 1.127.025 2.26 0 3.386-.005m-1.69 3.666c-.625 1.775-1.207 3.575-1.89 5.328l2.171-.001 1.687-.019c-.237-.667-1.615-5.014-1.969-5.308M123.844 29.45l2.836.016c-.038 3.42-.008 6.844-.009 10.263-.001 1.411.143 2.954-.016 4.346l-.156.107h-2.658l-.006-6.315c-2.125-.06-4.266-.006-6.392-.003l.001 6.32-2.854-.005.011-14.726 2.843.007.001 6.02h6.403zM128.386 33.53c.941.028 1.885.018 2.826.023-.011 1.505-.249 5.662.116 6.907.143.49.43.94.895 1.179.698.358 1.408.15 2.102-.093.308-.343.572-.665.724-1.11.498-1.45.232-5.174.224-6.9.897.024 1.797.005 2.694 0-.021 1.034-.004 2.071-.006 3.106l.014 7.535q-1.322.02-2.644-.02l-.081-.095a2.5 2.5 0 0 0-.024-.629c-.826.358-1.561.9-2.5.92-1.09.021-2.272-.317-3.053-1.1-.593-.593-.955-1.39-1.141-2.2-.4-1.74-.164-5.596-.146-7.522M90.26 33.234c1.407-.11 2.873-.01 4.01.937.797.663 1.054 1.46 1.14 2.45l-2.542-.003c-.146-.271-.292-.587-.522-.8a1.95 1.95 0 0 0-1.392-.486c-.385.02-.877.175-1.117.5-.145.198-.226.402-.17.65.289 1.303 3.603 1.142 4.659 1.832.67.44 1.186 1.228 1.335 2.014a2.96 2.96 0 0 1-.527 2.293c-.81 1.117-2.058 1.518-3.357 1.717-1.203.073-2.597-.25-3.56-.982-.902-.687-1.227-1.53-1.35-2.616q1.284.002 2.57-.024c.05.162.106.317.187.467.373.688 1.117.84 1.807 1.044.456-.105 1.074-.222 1.398-.59.195-.223.263-.61.18-.892-.316-1.09-3.491-1.218-4.593-1.896-.652-.402-1.132-.987-1.305-1.742-.157-.685-.098-1.454.288-2.054.694-1.085 1.653-1.53 2.862-1.819M107.368 33.231c.801-.065 1.585-.06 2.366.15.9.245 1.857.748 2.312 1.6.219.41.387 1.145.239 1.599-.729.157-1.62.05-2.37.042-.11-.37-.204-.657-.505-.913a1.83 1.83 0 0 0-1.372-.417c-.387.04-.884.23-1.1.577-.13.207-.182.42-.101.657.468 1.38 3.274 1.052 4.366 1.675.695.397 1.276 1.096 1.473 1.877.213.84.072 1.772-.412 2.494-.723 1.078-1.872 1.484-3.084 1.72-1.191.146-2.569-.107-3.564-.793-1.021-.704-1.328-1.588-1.557-2.742l2.548-.019c.155.39.296.694.626.964.44.36.962.524 1.53.448.439-.058.873-.26 1.136-.628.172-.242.258-.536.176-.83-.319-1.133-3.133-1.062-4.25-1.663-.754-.407-1.352-1.083-1.591-1.913a2.6 2.6 0 0 1 .253-2.065c.617-1.047 1.747-1.558 2.881-1.82M75.994 30.608c.846.029 1.698.01 2.545.014q-.014 1.434.042 2.866l2.51.002-.005 2.188h-2.391c0 1.377-.314 4.93.318 5.994.494.389 1.48.243 2.079.237l-.009 1.813c.006.187.005.281-.09.445-.335.16-.677.196-1.046.199-.972.008-2.313-.167-3.012-.895-1.403-1.46-.954-5.757-.948-7.796l-1.62.003.005-2.193 1.614.01zM97.823 30.595l2.498.015c-.019.957.021 1.918.038 2.875l2.552-.005-.004 2.2-2.401-.003c.029 1.312-.292 4.973.302 5.964.638.382 1.438.28 2.155.278-.009.632.004 1.265.007 1.897l-.031.24c-.247.262-.627.25-.964.259-1.026.024-2.443-.138-3.187-.917-1.389-1.454-.957-5.69-.944-7.722l-1.709.001c-.022-.727-.013-1.458-.019-2.185l1.702.008zM43.935 28.96c.132-.007.259-.009.39.01.408.06.81.257 1.035.615.239.38.271.887.304 1.327.162 2.18.042 4.449.041 6.637 0 1.787.198 4.21-.134 5.931-.105.541-.463.8-.893 1.093-.163.02-.335.042-.5.032a1.35 1.35 0 0 1-.956-.466c-.236-.278-.229-.837-.25-1.186-.15-2.509-.023-5.097-.02-7.613 0-1.43-.196-4.166.105-5.442.107-.456.519-.695.878-.938M72.897 33.45l.358-.004c.426.475.215 1.982.201 2.606-.899-.01-1.749-.045-2.453.608-1.322 1.225-.876 5.716-.89 7.518-.707-.007-2.087.252-2.628-.198l-.028-.447c.013-3.34-.072-6.677-.05-10.016.857.027 1.718.009 2.575.004l-.03 1.475c.16-.229.317-.473.502-.681.65-.734 1.532-.8 2.443-.865M82.653 33.494l2.694.001.006 10.689-2.725-.004zM40.17 32.462c.443.081.834.248 1.092.632.398.593.408 6.4.21 7.229-.11.453-.502.674-.873.892-.426-.026-.986-.064-1.27-.433-.423-.548-.388-6.72-.147-7.494.14-.45.602-.64.988-.826M83.823 29.09a1.49 1.49 0 1 1 .348 2.96 1.49 1.49 0 0 1-.348-2.96"/></svg>