<?xml version="1.0" encoding="UTF-8"?>
<svg xmlns="http://www.w3.org/2000/svg" xmlns:xlink="http://www.w3.org/1999/xlink" width="0" height="0">
<symbol id="Youtube-mob" width="40" height="40" fill="none" viewBox="0 0 40 40"><path fill="#fff" d="M35.989 12.005a4.18 4.18 0 0 0-2.937-2.943c-2.61-.717-13.051-.728-13.051-.728s-10.44-.012-13.052.673a4.27 4.27 0 0 0-2.943 2.963c-.689 2.61-.695 8.024-.695 8.024s-.007 5.44.676 8.023a4.18 4.18 0 0 0 2.939 2.942c2.636.716 13.05.728 13.05.728s10.441.011 13.051-.672a4.19 4.19 0 0 0 2.945-2.938c.69-2.609.695-8.02.695-8.02s.033-5.442-.678-8.052M16.66 25.01l.008-10 8.678 5.008z"/></symbol>
<symbol id="Instagram-mob" width="40" height="40" fill="none" viewBox="0 0 40 40"><path fill="#fff" d="M19.998 7.702c4.007 0 4.482.017 6.057.088 1.465.064 2.256.31 2.783.515.698.27 1.201.598 1.722 1.12a4.7 4.7 0 0 1 1.125 1.722c.206.528.451 1.324.516 2.783.07 1.583.088 2.057.088 6.059 0 4.001-.018 4.481-.088 6.058-.065 1.465-.31 2.255-.516 2.783a4.6 4.6 0 0 1-1.119 1.722 4.7 4.7 0 0 1-1.722 1.125c-.528.205-1.325.45-2.783.515-1.582.07-2.057.088-6.058.088-4.002 0-4.482-.017-6.059-.088-1.465-.064-2.255-.31-2.783-.515a4.64 4.64 0 0 1-1.723-1.12 4.7 4.7 0 0 1-1.124-1.721c-.206-.528-.451-1.325-.516-2.783-.07-1.583-.088-2.057-.088-6.059 0-4.001.018-4.481.088-6.058.065-1.465.31-2.255.516-2.783.27-.697.598-1.2 1.119-1.723a4.7 4.7 0 0 1 1.723-1.125c.527-.205 1.323-.45 2.783-.515 1.576-.07 2.05-.088 6.058-.088zm0-2.701c-4.072 0-4.581.018-6.181.088-1.594.07-2.69.328-3.638.697a7.3 7.3 0 0 0-2.66 1.735 7.34 7.34 0 0 0-1.733 2.653c-.37.956-.628 2.045-.698 3.638C5.018 15.418 5 15.927 5 20s.018 4.58.088 6.181c.07 1.593.328 2.69.698 3.638.387.99.896 1.828 1.734 2.66a7.3 7.3 0 0 0 2.653 1.728c.956.37 2.045.627 3.638.697 1.6.07 2.11.088 6.181.088 4.072 0 4.582-.017 6.181-.088 1.594-.07 2.69-.328 3.638-.697a7.3 7.3 0 0 0 2.654-1.729 7.3 7.3 0 0 0 1.729-2.653c.369-.956.627-2.045.697-3.638.07-1.6.088-2.11.088-6.181 0-4.072-.018-4.581-.088-6.181-.07-1.594-.328-2.69-.697-3.638a7 7 0 0 0-1.717-2.666 7.3 7.3 0 0 0-2.653-1.729c-.956-.37-2.045-.627-3.638-.697C24.58 5.018 24.07 5 19.999 5z"/><path fill="#fff" d="M19.998 12.294A7.706 7.706 0 0 0 12.293 20a7.706 7.706 0 0 0 7.705 7.704 7.706 7.706 0 0 0 7.704-7.704 7.706 7.706 0 0 0-7.704-7.705m0 12.702a4.997 4.997 0 1 1 0-9.995 4.997 4.997 0 0 1 0 9.995M29.804 11.99a1.799 1.799 0 1 1-3.598 0 1.799 1.799 0 0 1 3.598 0"/></symbol>
<symbol id="Facebook-mob" width="40" height="40" fill="none" viewBox="0 0 40 40"><path fill="#fff" d="M36.667 20.506c0-9.26-7.462-16.768-16.667-16.768S3.334 11.245 3.334 20.506c0 8.37 6.094 15.307 14.062 16.565V25.354h-4.232v-4.848h4.232v-3.694c0-4.203 2.488-6.524 6.295-6.524 1.824 0 3.731.328 3.731.328v4.126H25.32c-2.07 0-2.716 1.293-2.716 2.619v3.145h4.623l-.74 4.848h-3.883V37.07c7.968-1.258 14.063-8.195 14.063-16.565"/></symbol>
<symbol id="Facebook-pc" width="24" height="24" fill="none" viewBox="0 0 24 24"><path fill="#fff" d="M22 12.304c0-5.557-4.477-10.061-10-10.061S2 6.747 2 12.303c0 5.023 3.657 9.185 8.438 9.94v-7.03h-2.54v-2.91h2.54v-2.216c0-2.521 1.492-3.914 3.777-3.914 1.094 0 2.238.196 2.238.196v2.476h-1.26c-1.243 0-1.63.776-1.63 1.572v1.887h2.773l-.443 2.908h-2.33v7.03c4.78-.754 8.437-4.916 8.437-9.938"/></symbol>
<symbol id="Instagram-pc" width="24" height="24" fill="none" viewBox="0 0 24 24"><path fill="#fff" d="M11.999 4.62c2.404 0 2.689.012 3.634.054.88.039 1.353.186 1.67.31.418.161.72.358 1.033.67.317.317.51.616.675 1.034.123.317.27.795.31 1.67.042.95.052 1.234.052 3.635s-.01 2.69-.053 3.635c-.038.88-.186 1.353-.309 1.67a2.8 2.8 0 0 1-.671 1.033c-.317.317-.616.51-1.034.675-.316.123-.794.27-1.67.31-.949.042-1.233.052-3.634.052s-2.69-.01-3.635-.053c-.88-.038-1.354-.186-1.67-.309a2.8 2.8 0 0 1-1.034-.672 2.8 2.8 0 0 1-.675-1.033c-.123-.316-.27-.794-.31-1.67-.041-.949-.052-1.233-.052-3.635 0-2.4.01-2.688.053-3.634.039-.88.186-1.354.31-1.67.161-.419.358-.72.67-1.034a2.8 2.8 0 0 1 1.034-.675c.317-.123.795-.27 1.67-.31.946-.041 1.23-.052 3.635-.052m0-1.62c-2.443 0-2.749.011-3.709.053-.956.043-1.613.197-2.183.419a4.4 4.4 0 0 0-1.595 1.04 4.4 4.4 0 0 0-1.04 1.593c-.222.573-.377 1.226-.42 2.182C3.012 9.251 3 9.557 3 12c0 2.444.01 2.749.053 3.709.042.956.197 1.614.418 2.183a4.4 4.4 0 0 0 1.04 1.595 4.4 4.4 0 0 0 1.593 1.037c.573.222 1.227.377 2.183.419.96.042 1.265.053 3.708.053s2.75-.01 3.71-.053c.955-.042 1.613-.197 2.182-.419a4.4 4.4 0 0 0 1.592-1.037c.499-.5.809-1.001 1.037-1.592.222-.573.376-1.226.419-2.183.042-.96.053-1.265.053-3.708s-.011-2.749-.053-3.709c-.043-.956-.197-1.613-.419-2.183a4.2 4.2 0 0 0-1.03-1.6 4.4 4.4 0 0 0-1.592-1.036c-.573-.222-1.226-.377-2.183-.419C14.748 3.011 14.443 3 12 3"/><path fill="#fff" d="M11.999 7.377a4.624 4.624 0 0 0 0 9.245 4.623 4.623 0 0 0 0-9.245m0 7.62a2.998 2.998 0 1 1 0-5.996 2.998 2.998 0 0 1 0 5.997M17.882 7.194a1.08 1.08 0 1 1-2.158 0 1.08 1.08 0 0 1 2.158 0"/></symbol>
<symbol id="Youtube-pc" width="24" height="24" fill="none" viewBox="0 0 24 24"><path fill="#fff" d="M21.593 7.203a2.5 2.5 0 0 0-1.762-1.766c-1.566-.43-7.83-.437-7.83-.437s-6.265-.007-7.832.404a2.56 2.56 0 0 0-1.766 1.778c-.413 1.566-.417 4.814-.417 4.814s-.004 3.264.406 4.814c.23.857.905 1.534 1.763 1.765 1.582.43 7.83.437 7.83.437s6.265.007 7.831-.403a2.52 2.52 0 0 0 1.767-1.763c.414-1.565.417-4.812.417-4.812s.02-3.265-.407-4.831M9.996 15.005l.005-6 5.207 3.005z"/></symbol>
</svg>
