<svg aria-hidden="true" style="position: absolute; width: 0; height: 0; overflow: hidden;" version="1.1" xmlns="http://www.w3.org/2000/svg" xmlns:xlink="http://www.w3.org/1999/xlink">
<defs>
<symbol id="icon-caret-right" viewBox="0 0 32 32">
<path d="M12 25.333l10.667-9.333-10.667-9.333z"></path>
</symbol>
<symbol id="icon-chevron-down" viewBox="0 0 32 32">
<path d="M21.724 11.057l-5.724 5.724-5.724-5.724-1.885 1.885 7.609 7.609 7.609-7.609z"></path>
</symbol>
<symbol id="icon-chevron-up" viewBox="0 0 32 32">
<path d="M8.391 19.057l1.885 1.885 5.724-5.724 5.724 5.724 1.885-1.885-7.609-7.609z"></path>
</symbol>
<symbol id="icon-down-arrow-alt" viewBox="0 0 32 32">
<path d="M24.943 16.943l-1.885-1.885-5.724 5.724v-12.781h-2.667v12.781l-5.724-5.724-1.885 1.885 8.943 8.943z"></path>
</symbol>
<symbol id="icon-error-circle" viewBox="0 0 32 32">
<path d="M15.938 2.666c-7.317 0-13.27 5.982-13.27 13.334s5.982 13.334 13.334 13.334 13.333-5.982 13.333-13.334-6.009-13.334-13.396-13.334zM16.001 26.666c-5.882 0-10.667-4.785-10.667-10.666s4.756-10.666 10.604-10.666c5.918 0 10.73 4.785 10.73 10.666s-4.786 10.666-10.666 10.666z"></path>
<path d="M14.667 9.334h2.666v9.333h-2.666zM14.667 20h2.666v2.666h-2.666z"></path>
</symbol>
<symbol id="icon-Facebook" viewBox="0 0 32 32">
<path d="M29.333 16.405c0-7.409-5.969-13.415-13.333-13.415s-13.333 6.005-13.333 13.413c0 6.697 4.876 12.247 11.251 13.253v-9.373h-3.387v-3.88h3.387v-2.955c0-3.361 1.989-5.219 5.036-5.219 1.459 0 2.984 0.261 2.984 0.261v3.301h-1.68c-1.657 0-2.173 1.035-2.173 2.096v2.516h3.697l-0.591 3.877h-3.107v9.373c6.373-1.005 11.249-6.555 11.249-13.251z"></path>
</symbol>
<symbol id="icon-Instagram" viewBox="0 0 32 32">
<path d="M15.999 6.16c3.205 0 3.585 0.016 4.845 0.072 1.173 0.052 1.804 0.248 2.227 0.413 0.557 0.215 0.96 0.477 1.377 0.893 0.423 0.423 0.68 0.821 0.9 1.379 0.164 0.423 0.36 1.060 0.413 2.227 0.056 1.267 0.069 1.645 0.069 4.847s-0.013 3.587-0.071 4.847c-0.051 1.173-0.248 1.804-0.412 2.227-0.203 0.54-0.508 1-0.894 1.377l-0.001 0.001c-0.423 0.423-0.821 0.68-1.379 0.9-0.421 0.164-1.059 0.36-2.227 0.413-1.265 0.056-1.644 0.069-4.845 0.069s-3.587-0.013-4.847-0.071c-1.173-0.051-1.805-0.248-2.227-0.412-0.54-0.203-1.001-0.508-1.378-0.895l-0.001-0.001c-0.389-0.377-0.695-0.837-0.891-1.352l-0.009-0.026c-0.164-0.421-0.36-1.059-0.413-2.227-0.055-1.265-0.069-1.644-0.069-4.847 0-3.2 0.013-3.584 0.071-4.845 0.052-1.173 0.248-1.805 0.413-2.227 0.215-0.559 0.477-0.96 0.893-1.379 0.378-0.389 0.838-0.696 1.353-0.891l0.026-0.009c0.423-0.164 1.060-0.36 2.227-0.413 1.261-0.055 1.64-0.069 4.847-0.069zM15.997 4.001c-3.257 0-3.665 0.015-4.945 0.071-1.275 0.057-2.151 0.263-2.911 0.559-0.833 0.318-1.542 0.79-2.126 1.386l-0.001 0.001c-0.596 0.584-1.068 1.292-1.373 2.084l-0.014 0.040c-0.296 0.764-0.503 1.635-0.56 2.909-0.052 1.284-0.068 1.692-0.068 4.949 0 3.259 0.013 3.665 0.071 4.945 0.056 1.275 0.263 2.152 0.557 2.911 0.318 0.833 0.79 1.542 1.386 2.126l0.001 0.001c0.584 0.595 1.293 1.065 2.084 1.369l0.040 0.014c0.764 0.296 1.636 0.503 2.911 0.559 1.28 0.056 1.687 0.071 4.944 0.071s3.667-0.013 4.947-0.071c1.273-0.056 2.151-0.263 2.909-0.559 0.831-0.318 1.539-0.788 2.122-1.382l0.001-0.001c0.665-0.667 1.079-1.335 1.383-2.123 0.296-0.764 0.501-1.635 0.559-2.911 0.056-1.28 0.071-1.687 0.071-4.944s-0.015-3.665-0.071-4.945c-0.057-1.275-0.263-2.151-0.559-2.911-0.305-0.838-0.774-1.551-1.372-2.132l-0.001-0.001c-0.584-0.594-1.292-1.064-2.082-1.368l-0.040-0.014c-0.764-0.296-1.635-0.503-2.911-0.559-1.284-0.061-1.691-0.076-4.948-0.076z"></path>
<path d="M15.999 9.836c-3.337 0.088-6.008 2.814-6.008 6.163s2.671 6.076 6 6.163l0.008 0c3.365-0.051 6.073-2.791 6.073-6.163s-2.708-6.112-6.069-6.163l-0.005-0zM15.999 19.996c-2.208 0-3.997-1.79-3.997-3.997s1.79-3.997 3.997-3.997v0c2.208 0 3.998 1.79 3.998 3.998s-1.79 3.998-3.998 3.998v0zM23.843 9.592c0.001 0.018 0.001 0.040 0.001 0.062 0 0.795-0.645 1.44-1.44 1.44s-1.44-0.645-1.44-1.44c0-0.022 0-0.043 0.001-0.065l-0 0.003c0.034-0.768 0.665-1.378 1.439-1.378s1.405 0.61 1.439 1.375l0 0.003z"></path>
</symbol>
<symbol id="icon-left-arrow-alt" viewBox="0 0 32 32">
<path d="M16.943 23.057l-5.724-5.724h12.781v-2.667h-12.781l5.724-5.724-1.885-1.885-8.943 8.943 8.943 8.943z"></path>
</symbol>
<symbol id="icon-logo-icon" viewBox="0 0 32 32">
<path d="M17.5 3.14c0.384-0.041 0.831 0.040 1.2 0.144 0.839 0.237 1.519 0.747 1.923 1.475 0.42 0.744 0.5 1.615 0.224 2.416-0.352 0.987-1.107 1.484-2.047 1.94l0.011 2.881c0.672 0.192 1.327 0.408 1.939 0.739 1.347 0.741 2.344 1.975 2.757 3.453l0.009 0.040c0.129 0.449 0.204 0.964 0.204 1.497 0 1.117-0.327 2.158-0.891 3.031l0.013-0.022c-0.804 1.241-2.044 2.14-3.498 2.486l-0.039 0.008c-1.96 0.455-3.623-0.040-5.307-0.973q-1.116 1.115-2.205 2.251c0.324 0.713 0.432 1.463 0.217 2.22-0.211 0.741-0.768 1.376-1.48 1.752-0.472 0.25-1.032 0.397-1.626 0.397-0.341 0-0.672-0.048-0.984-0.139l0.025 0.006c-0.869-0.232-1.6-0.733-2.025-1.487-0.417-0.741-0.453-1.611-0.181-2.401 0.308-0.9 0.937-1.453 1.82-1.864 0.951-0.347 1.736-0.233 2.663 0.079 0.773-0.757 1.5-1.553 2.28-2.304-0.857-1.567-1.135-2.901-0.689-4.628-0.971-0.423-1.907-0.915-2.879-1.337-0.5 0.497-1.151 0.843-1.879 0.963l-0.020 0.003c-0.159 0.024-0.343 0.038-0.529 0.038-0.755 0-1.458-0.228-2.041-0.62l0.013 0.008c-0.696-0.463-1.182-1.193-1.314-2.040l-0.002-0.017c-0.12-0.8 0.107-1.684 0.656-2.316 0.568-0.651 1.448-1.044 2.337-1.131 0.098-0.010 0.212-0.015 0.327-0.015 0.791 0 1.52 0.265 2.104 0.711l-0.008-0.006c0.865 0.676 1.115 1.516 1.22 2.516 0.92 0.527 1.975 0.932 2.933 1.4 1.249-1.373 2.161-1.808 3.981-2.331l0.001-2.859c-0.357-0.128-0.666-0.284-0.951-0.473l0.016 0.010c-0.69-0.47-1.172-1.202-1.303-2.050l-0.002-0.017c-0.015-0.112-0.024-0.241-0.024-0.373 0-0.737 0.27-1.41 0.717-1.927l-0.003 0.004c0.6-0.703 1.404-1.023 2.336-1.137zM17.361 14.096c-2.131 0.163-3.715 1.909-3.528 3.893s2.072 3.447 4.2 3.261c2.111-0.187 3.664-1.921 3.479-3.888-0.185-1.968-2.040-3.427-4.151-3.267zM27.617 12.587c0.032-0.003 0.069-0.004 0.107-0.004 0.056 0 0.112 0.004 0.166 0.010l-0.006-0.001c0.28 0.039 0.556 0.164 0.711 0.393 0.164 0.243 0.187 0.567 0.208 0.848 0.112 1.395 0.029 2.844 0.028 4.243 0 1.143 0.136 2.693-0.092 3.792-0.071 0.347-0.317 0.512-0.612 0.699-0.112 0.013-0.229 0.027-0.343 0.021-0.259-0.011-0.49-0.124-0.656-0.298l-0-0c-0.161-0.177-0.157-0.535-0.172-0.759-0.103-1.603-0.015-3.257-0.013-4.867 0-0.913-0.133-2.663 0.072-3.479 0.073-0.292 0.356-0.444 0.603-0.6zM25.036 14.825c0.303 0.052 0.572 0.159 0.748 0.404 0.273 0.379 0.28 4.091 0.144 4.621-0.075 0.289-0.344 0.431-0.6 0.569-0.291-0.016-0.675-0.040-0.869-0.276-0.291-0.351-0.267-4.296-0.101-4.791 0.096-0.288 0.413-0.409 0.677-0.528z"></path>
</symbol>
<symbol id="icon-menu-alt-right" viewBox="0 0 32 32">
<path d="M5.333 8h21.333v2.667h-21.333zM10.667 14.667h16v2.667h-16zM17.333 21.333h9.333v2.667h-9.333z"></path>
</symbol>
<symbol id="icon-right-arrow" viewBox="0 0 32 32">
<path d="M7.381 29.181c0.179 0.096 0.392 0.152 0.618 0.152 0.284 0 0.547-0.089 0.764-0.24l-0.004 0.003 17.333-12c0.349-0.244 0.574-0.644 0.574-1.096s-0.225-0.852-0.57-1.093l-0.004-0.003-17.333-12c-0.212-0.15-0.476-0.239-0.761-0.239-0.735 0-1.331 0.596-1.331 1.331 0 0.002 0 0.003 0 0.005v-0 24c0 0 0 0 0 0 0 0.51 0.287 0.953 0.707 1.178l0.007 0.003zM9.333 6.545l13.657 9.455-13.657 9.455z"></path>
</symbol>
<symbol id="icon-right-arrow-alt" viewBox="0 0 32 32">
<path d="M15.057 23.057l1.885 1.885 8.943-8.943-8.943-8.943-1.885 1.885 5.724 5.724h-12.781v2.667h12.781z"></path>
</symbol>
<symbol id="icon-search" viewBox="0 0 32 32">
<path d="M13.333 24c2.473-0 4.749-0.848 6.552-2.268l-0.023 0.017 5.861 5.861 1.885-1.885-5.861-5.861c1.404-1.781 2.252-4.057 2.252-6.531v-0c0-5.881-4.785-10.667-10.667-10.667s-10.667 4.785-10.667 10.667 4.785 10.667 10.667 10.667zM13.333 5.333c4.412 0 8 3.588 8 8s-3.588 8-8 8-8-3.588-8-8 3.588-8 8-8z"></path>
</symbol>
<symbol id="icon-star" viewBox="0 0 32 32">
<path d="M14.512 1.779c0.552-1.306 2.424-1.306 2.976 0l3.245 7.712c0.232 0.549 0.757 0.926 1.358 0.973l8.426 0.667c1.427 0.114 2.006 1.874 0.918 2.794l-6.419 5.435c-0.344 0.292-0.561 0.726-0.561 1.21 0 0.13 0.016 0.256 0.045 0.377l-0.002-0.011 1.96 8.123c0.333 1.376-1.184 2.464-2.405 1.728l-7.213-4.354c-0.24-0.146-0.53-0.233-0.84-0.233s-0.6 0.087-0.847 0.237l0.007-0.004-7.213 4.352c-1.222 0.738-2.738-0.35-2.405-1.726l1.96-8.123c0.027-0.11 0.043-0.236 0.043-0.366 0-0.484-0.217-0.917-0.559-1.208l-0.002-0.002-6.419-5.435c-1.088-0.92-0.509-2.68 0.918-2.794l8.426-0.667c0.603-0.048 1.126-0.424 1.36-0.974z"></path>
</symbol>
<symbol id="icon-x" viewBox="0 0 32 32">
<path d="M21.589 8.459l-5.657 5.656-5.656-5.656-1.885 1.885 5.656 5.656-5.656 5.656 1.885 1.885 5.656-5.656 5.657 5.656 1.885-1.885-5.656-5.656 5.656-5.656z"></path>
</symbol>
<symbol id="icon-Youtube" viewBox="0 0 32 32">
<path d="M28.791 9.604c-0.315-1.149-1.201-2.037-2.326-2.349l-0.023-0.006c-2.088-0.573-10.44-0.583-10.44-0.583s-8.353-0.009-10.443 0.539c-1.146 0.334-2.029 1.222-2.349 2.347l-0.006 0.024c-0.551 2.088-0.556 6.419-0.556 6.419s-0.005 4.352 0.541 6.419c0.307 1.143 1.207 2.045 2.351 2.353 2.109 0.573 10.44 0.583 10.44 0.583s8.353 0.009 10.441-0.537c1.147-0.32 2.033-1.204 2.35-2.327l0.006-0.024c0.552-2.087 0.556-6.416 0.556-6.416s0.027-4.353-0.543-6.441zM13.328 20.007l0.007-8 6.943 4.007z"></path>
</symbol>
</defs>
</svg>
